<svg version="1.1" xmlns="http://www.w3.org/2000/svg" xmlns:xlink="http://www.w3.org/1999/xlink" width="84.29227" height="75.56205" viewBox="0,0,84.29227,75.56205"><g transform="translate(-197.78917,-142.52676)"><g data-paper-data="{&quot;isPaintingLayer&quot;:true}" fill-rule="nonzero" stroke-linecap="butt" stroke-linejoin="miter" stroke-miterlimit="10" stroke-dasharray="" stroke-dashoffset="0" style="mix-blend-mode: normal"><g stroke="none"><path d="M201.3611,213.0654c-0.9547,0 -1.8625,-0.3513 -2.4268,-0.94c-0.3009,-0.3135 -0.4595,-0.6564 -0.4469,-0.9665c0.3073,-2.5203 1.7284,-9.1656 2.7137,-9.6398c0.0343,-0.007 0.1055,-0.0133 0.1942,-0.0133c0.4881,0 1.4833,0.1963 2.6348,0.4239c1.7507,0.3471 3.924,0.7773 5.5497,0.7773c0.5126,0 0.9455,-0.044 1.2856,-0.1313c2.3178,-0.5929 6.0721,-3.4917 6.8004,-4.0671c0.6537,-0.4735 1.2214,-0.7096 1.72,-0.7096c1.211,0 1.521,1.4414 1.5238,1.4568v0.0007c-0.1124,0.1941 -2.5259,4.2843 -6.9596,5.1195c-1.0727,0.2025 -2.3415,0.3059 -3.7717,0.3059c-2.4149,0 -4.7327,-0.2919 -5.8989,-0.4658l-1.0356,-0.1544l0.2556,1.0154c0.8184,3.2536 1.1236,6.9687 -0.4728,7.6391c-0.5496,0.2326 -1.1104,0.3492 -1.6655,0.3492v0v0z" fill="#d4fc6a" stroke-width="0.69834"/><path d="M219.3865,198.4988c-0.3366,0 -0.7758,0.1934 -1.3058,0.5733c-0.7899,0.6222 -4.607,3.558 -7.0414,4.181c-0.4029,0.1033 -0.8799,0.1529 -1.4588,0.1529c-1.6942,0 -3.9051,-0.4379 -5.681,-0.7898c-0.9902,-0.1956 -1.926,-0.3806 -2.3953,-0.4085c-0.8708,1.1913 -2.007,6.6614 -2.3164,9.0057c0.0098,0.0866 0.0713,0.2409 0.2507,0.4281c0.4288,0.4476 1.1656,0.7249 1.9226,0.7249c0.4623,0 0.9315,-0.0992 1.3973,-0.2933c0.7996,-0.3359 1.0797,-2.7885 0.0643,-6.8242l-0.5112,-2.0315l2.0713,0.3087c1.1466,0.1711 3.4246,0.4581 5.7948,0.4581c1.3876,0 2.6125,-0.0991 3.6418,-0.2933c3.5245,-0.6634 5.7368,-3.6425 6.3269,-4.5315c-0.1096,-0.2668 -0.3421,-0.6606 -0.7598,-0.6606M219.3865,198.4988v0v-1.3967v0c1.4184,0 2.065,1.3185 2.2082,2.0154l0.0538,0.2605l-0.1327,0.229c-0.1076,0.1865 -2.6837,4.5623 -7.4359,5.4568c-1.1174,0.2116 -2.4295,0.3178 -3.9009,0.3178c0,0 0,0 -0.0007,0c-2.4072,0 -4.7019,-0.28 -6.0008,-0.4735c0.6075,2.4156 1.5405,7.4373 -0.8799,8.4534c-0.6355,0.2661 -1.2864,0.4015 -1.9365,0.4015c-1.1411,0 -2.2368,-0.4315 -2.9303,-1.1543c-0.4336,-0.4518 -0.6613,-0.977 -0.6403,-1.4784c0.0035,-0.0957 1.4574,-9.8598 3.2305,-10.2844c0.1068,-0.0258 0.2297,-0.0384 0.375,-0.0384c0.5573,0 1.5363,0.1934 2.7752,0.4385c1.7179,0.3408 3.8562,0.7633 5.4093,0.7633c0.4546,0 0.8296,-0.0363 1.1131,-0.1089c2.3304,-0.5957 6.5044,-3.91 6.5463,-3.9428c0.8023,-0.5817 1.4958,-0.8555 2.1466,-0.8555z" fill="#000000" stroke-width="0.69834"/><path d="M219.4272,198.46976c0.4177,0 0.6524,0.39716 0.762,0.66396c-0.5901,0.889 -2.89141,3.91312 -6.41591,4.57652c-1.0293,0.1942 -2.22471,0.32112 -3.61231,0.32112c-2.3702,0 -4.58455,-0.31719 -5.73115,-0.48829l-2.07046,-0.31125l0.51331,2.01842c1.0154,4.0357 0.72137,6.45231 -0.07823,6.78821c-0.4658,0.1941 -1.00943,0.35999 -1.47173,0.35999c-0.757,0 -1.49816,-0.2834 -1.92696,-0.731c-0.1794,-0.1872 -0.24194,-0.34329 -0.25174,-0.42989c0.3094,-2.3443 1.44288,-7.85692 2.31368,-9.04822c0.4693,0.0279 1.40667,0.20933 2.39687,0.40493c1.7759,0.3519 4.0296,0.76179 5.7238,0.76179c0.5789,0 1.08467,-0.04196 1.48757,-0.14526c2.4344,-0.623 6.26475,-3.54664 7.05465,-4.16884c0.53,-0.3799 0.97002,-0.57219 1.30662,-0.57219" data-paper-data="{&quot;noHover&quot;:false,&quot;origItem&quot;:[&quot;Path&quot;,{&quot;applyMatrix&quot;:true,&quot;segments&quot;:[[[219.3865,198.4988],[0,0],[-0.3366,0]],[[218.0807,199.0721],[0.53,-0.3799],[-0.7899,0.6222]],[[211.0393,203.2531],[2.4344,-0.623],[-0.4029,0.1033]],[[209.5805,203.406],[0.5789,0],[-1.6942,0]],[[203.8995,202.6162],[1.7759,0.3519],[-0.9902,-0.1956]],[[201.5042,202.2077],[0.4693,0.0279],[-0.8708,1.1913]],[[199.1878,211.2134],[0.3094,-2.3443],[0.0098,0.0866]],[[199.4385,211.6415],[-0.1794,-0.1872],[0.4288,0.4476]],[[201.3611,212.3664],[-0.757,0],[0.4623,0]],[[202.7584,212.0731],[-0.4658,0.1941],[0.7996,-0.3359]],[[202.8227,205.2489],[1.0154,4.0357],[0,0]],[202.3115,203.2174],[[204.3828,203.5261],[0,0],[1.1466,0.1711]],[[210.1776,203.9842],[-2.3702,0],[1.3876,0]],[[213.8194,203.6909],[-1.0293,0.1942],[3.5245,-0.6634]],[[220.1463,199.1594],[-0.5901,0.889],[-0.1096,-0.2668]],[[219.3865,198.4988],[0.4177,0],[0,0]]],&quot;fillColor&quot;:[0,0,0,1]}]}" fill="#ff6666" stroke-width="0.5"/></g><path d="M236.2025,202.1965c0.2982,-0.808 0.5307,-3.403 0.5307,-3.403l5.4555,-1.8918c0,0 -1.0692,6.5616 -5.0302,8.9268c-3.9595,2.3674 -8.1796,3.1481 -8.1796,3.1481c0,0 6.2117,5.1607 3.3604,7.8466c-2.852,2.6872 -7.4087,-4.9876 -7.4024,-6.0421c0.0063,-1.0545 -0.2961,-2.9805 3.5134,-3.9428c3.8108,-0.9609 6.6614,-1.6872 7.7522,-4.6418v0z" fill="#ff6666" stroke="#000000" stroke-width="1.39667"/><path d="M256.4885,194.1321v0v0c0,0 3.9072,1.6362 5.989,5.5678c2.081,3.9331 3.4002,8.4625 3.4002,8.4625c0,0 6.1865,0.7367 7.5504,2.5063c1.3631,1.771 0.1634,5.7697 -2.2843,4.8451c-2.4477,-0.9246 -7.4659,-2.7822 -7.8437,-3.9757c-0.3792,-1.1934 -0.5873,-6.7578 -2.8408,-9.8214c-2.2564,-3.0615 -6.9359,-7.5846 -6.9359,-7.5846h2.9651z" fill="#ff6666" stroke="#000000" stroke-width="1.39667"/><path d="M217.6749,162.1126c0,0 -4.3059,-3.433 -6.8088,-4.0727c-2.5028,-0.6411 -8.7292,1.2794 -9.6824,1.0517c-0.9518,-0.229 -2.6502,-8.5379 -2.6956,-9.635c-0.0461,-1.0963 2.079,-2.5901 4.5392,-1.5586c2.4595,1.0307 0.1899,8.674 0.1899,8.674c0,0 6.2439,-1.1823 10.7328,-0.3366c4.4917,0.8471 6.9603,5.1202 6.9603,5.1202" fill="#ff6666" stroke="#000000" stroke-width="1.39667"/><path d="M236.2025,158.4205v0c-1.0908,-2.9554 -3.9414,-3.6809 -7.7522,-4.6432c-3.8095,-0.9616 -3.5071,-2.8877 -3.5134,-3.9429c-0.0063,-1.0551 4.5504,-8.7292 7.4024,-6.042c2.8513,2.6872 -3.3604,7.8466 -3.3604,7.8466c0,0 4.2201,0.7814 8.1796,3.1467c3.961,2.3666 5.0302,8.9282 5.0302,8.9282l-5.4555,-1.8918c0,0 -0.2325,-2.5943 -0.5307,-3.4016z" fill="#ff6666" stroke="#000000" stroke-width="1.39667"/><path d="M256.4885,166.4856h-2.9651c0,0 4.6795,-4.5217 6.9359,-7.586c2.2535,-3.0636 2.4616,-8.628 2.8408,-9.8214c0.3778,-1.1935 5.396,-3.0511 7.8437,-3.9771c2.4484,-0.9246 3.6474,3.0755 2.2843,4.8458c-1.3639,1.7717 -7.5504,2.507 -7.5504,2.507c0,0 -1.3192,4.5308 -3.4002,8.4632c-2.0811,3.9323 -5.989,5.5685 -5.989,5.5685v0v0z" fill="#ff6666" stroke="#ff6666" stroke-width="1.39667"/><path d="M265.1779,170.1435c0,0 2.079,-5.3535 6.2152,-9.0498c2.6572,-2.3729 6.5825,-4.0301 7.1377,-4.1711c0.5538,-0.1404 -1.0258,-10.2048 -0.824,-9.9129c3.0482,4.3946 3.6306,11.9604 3.6306,11.9604c0,0 -4.19,0.8143 -9.1887,4.5979c-4.9987,3.7821 -4.8939,8.0609 -4.8939,8.0609l-2.0769,-1.4854v0z" fill="#ff6d00" stroke="#000000" stroke-width="1.39667"/><path d="M265.1779,190.4735v0l2.0769,-1.4854c0,0 -0.1048,4.2773 4.8939,8.0609c4.9987,3.7822 9.1887,4.5965 9.1887,4.5965c0,0 -0.5824,7.5658 -3.6306,11.9618c-0.2018,0.2905 1.3778,-9.7718 0.824,-9.9122c-0.5552,-0.1432 -4.4805,-1.8017 -7.1377,-4.1733c-4.1362,-3.6949 -6.2152,-9.0483 -6.2152,-9.0483z" fill="#ff6d00" stroke="#000000" stroke-width="1.39667"/><g stroke="none"><path d="M248.0226,186.9448v0c1.0021,3.0831 0.2632,5.8018 -0.1928,7.0169c-3.2612,0.727 -6.6461,2.3241 -10.1782,3.3024c-16.1589,4.4854 -36.0622,-4.6984 -36.9393,-16.3082h41.1426c0.1291,0.0111 4.375,0.4636 6.1677,5.9889z" fill="#8761d4" stroke-width="0.69834"/><path d="M200.7179,179.2533v0c1.0049,-11.5728 20.9529,-20.9767 36.9358,-16.1944c3.6187,1.0824 7.0343,2.7179 10.2858,3.4958c0.4497,1.3297 1.0077,3.8653 0.0831,6.7097c-1.8213,5.6083 -6.1803,5.9889 -6.1803,5.9889h-41.1244z" fill="#8761d4" stroke-width="0.69834"/><path d="M269.1396,180.1618v0c0,7.5442 -6.8325,13.4137 -18.1428,13.4137c-0.2654,0 -0.5328,0.0098 -0.8017,0.0286c0.3331,-1.2709 0.6536,-3.6774 -0.2591,-7.0169c-1.0161,-3.72 -3.4316,-5.5727 -5.3611,-6.4833c1.9295,-0.9107 4.345,-2.7619 5.3611,-6.4813c0.896,-3.2738 0.6683,-5.4945 0.3918,-6.6719c0.3254,0.0272 0.6515,0.0461 0.9756,0.0461c10.8563,0 17.8362,5.6223 17.8362,13.165z" fill="#ff6d00" stroke-width="0.69834"/><path d="M252.5136,165.332v0c11.658,0 19.154,6.734 19.154,14.834c0,8.0993 -7.3354,15.103 -19.4801,15.103c-4.5351,0 -9.2984,2.5643 -14.332,3.9623c-17.7476,4.9268 -39.7138,-6.1991 -39.7138,-19.0653c0,-12.8661 22.1045,-24.3342 39.7124,-19.066c5.2508,1.5713 10.1,4.232 14.6595,4.232zM250.1951,193.6041v0c0.2689,-0.0195 0.5356,-0.0286 0.8024,-0.0286c11.3096,0 18.1421,-5.8695 18.1421,-13.4137c0,-7.5427 -6.9799,-13.165 -17.8362,-13.165c-0.3227,0 -0.6488,-0.0189 -0.9756,-0.0461c0.2765,1.1774 0.5028,3.3981 -0.3918,6.6719c-1.0161,3.7187 -3.4316,5.5706 -5.3611,6.4813c1.9295,0.9113 4.345,2.7633 5.3611,6.4833c0.9127,3.3395 0.5922,5.746 0.2591,7.0169zM237.6523,163.0589v0c-15.9815,-4.7823 -35.9295,4.6216 -36.9344,16.1944h41.123c0,0 4.3604,-0.3806 6.181,-5.9889c0.9239,-2.8444 0.3673,-5.38 -0.0831,-6.7097c-3.2522,-0.7772 -6.6664,-2.4134 -10.2865,-3.4958zM237.6516,197.2641v0c3.5321,-0.979 6.917,-2.5761 10.1796,-3.3045c0.4546,-1.213 1.1949,-3.9337 0.1914,-7.0148c-1.7927,-5.5253 -6.0386,-5.9764 -6.1677,-5.9889h-41.1426c0.8771,11.6098 20.7797,20.7936 36.9393,16.3082z" fill="#231f20" stroke-width="0.69834"/><path d="M250.17274,193.64882c0.3331,-1.2709 0.63901,-3.68844 -0.27369,-7.02794c-1.0161,-3.72 -3.44465,-5.60639 -5.37415,-6.51769c1.9295,-0.9107 4.35895,-2.79655 5.37505,-6.51525c0.8946,-3.2738 0.68234,-5.50475 0.40584,-6.68215c0.3268,0.0272 0.65561,0.04487 0.97831,0.04487c10.8563,0 17.90549,5.66796 17.90549,13.21066c0,7.5442 -6.90266,13.45993 -18.21226,13.45993c-0.2668,0 -0.5357,0.00807 -0.8046,0.02757l0.04471,-0.08945z" data-paper-data="{&quot;noHover&quot;:false,&quot;origItem&quot;:[&quot;Path&quot;,{&quot;applyMatrix&quot;:true,&quot;segments&quot;:[[250.1951,193.6041],[[250.1951,193.6041],[0,0],[0.2689,-0.0195]],[[250.9975,193.5755],[-0.2668,0],[11.3096,0]],[[269.1396,180.1618],[0,7.5442],[0,-7.5427]],[[251.3034,166.9968],[10.8563,0],[-0.3227,0]],[[250.3278,166.9507],[0.3268,0.0272],[0.2765,1.1774]],[[249.936,173.6226],[0.8946,-3.2738],[-1.0161,3.7187]],[[244.5749,180.1039],[1.9295,-0.9107],[1.9295,0.9113]],[[249.936,186.5872],[-1.0161,-3.72],[0.9127,3.3395]],[[250.1951,193.6041],[0.3331,-1.2709],[0,0]]],&quot;closed&quot;:true,&quot;fillColor&quot;:[0,0,0,1]}]}" fill="#ff6666" stroke-width="0.5"/><path d="M237.69483,197.28922c-16.1596,4.4854 -36.15239,-4.74068 -37.02949,-16.35048l41.23417,-0.00544c0.1291,0.0125 4.38006,0.48037 6.17276,6.00567c1.0035,3.0811 0.26272,5.81667 -0.19188,7.02967c-3.2626,0.7284 -6.65344,2.34158 -10.18554,3.32058l-0.08646,-0.05025z" data-paper-data="{&quot;noHover&quot;:false,&quot;origItem&quot;:[&quot;Path&quot;,{&quot;applyMatrix&quot;:true,&quot;segments&quot;:[[237.6516,197.2641],[[237.6516,197.2641],[0,0],[3.5321,-0.979]],[[247.8312,193.9596],[-3.2626,0.7284],[0.4546,-1.213]],[[248.0226,186.9448],[1.0035,3.0811],[-1.7927,-5.5253]],[[241.8549,180.9559],[0.1291,0.0125],[0,0]],[[200.7123,180.9559],[0,0],[0.8771,11.6098]],[[237.6516,197.2641],[-16.1596,4.4854],[0,0]]],&quot;closed&quot;:true,&quot;fillColor&quot;:[0,0,0,1]}]}" fill="#ff6666" stroke-width="0.5"/><path d="M237.69569,163.03406c3.6201,1.0824 7.0402,2.73506 10.2924,3.51226c0.4504,1.3297 1.00737,3.87951 0.08347,6.72391c-1.8206,5.6083 -6.18607,6.00569 -6.18607,6.00569l-41.21456,-0.00546c1.0049,-11.5728 21.04326,-21.0187 37.02476,-16.2364v0z" data-paper-data="{&quot;noHover&quot;:false,&quot;origItem&quot;:[&quot;Path&quot;,{&quot;applyMatrix&quot;:true,&quot;segments&quot;:[[237.6523,163.0589],[[237.6523,163.0589],[0,0],[-15.9815,-4.7823]],[[200.7179,179.2533],[1.0049,-11.5728],[0,0]],[241.8409,179.2533],[[248.0219,173.2644],[-1.8206,5.6083],[0.9239,-2.8444]],[[247.9388,166.5547],[0.4504,1.3297],[-3.2522,-0.7772]],[[237.6523,163.0589],[3.6201,1.0824],[0,0]]],&quot;closed&quot;:true,&quot;fillColor&quot;:[0,0,0,1]}]}" fill="#ff6666" stroke-width="0.5"/></g><g stroke="none" stroke-width="0.69834"><g><path d="M261.6583,178.9565c-0.1306,0 -0.2598,-0.0091 -0.3883,-0.0286c-0.764,-0.1139 -1.4818,-0.5789 -1.9707,-1.2759c-0.4993,-0.7116 -0.7053,-1.5684 -0.5782,-2.4134c0.2339,-1.5755 1.6097,-2.8108 3.1313,-2.8108c0.1299,0 0.2577,0.0097 0.3855,0.0286c0.7647,0.1145 1.4833,0.5803 1.9714,1.2779c0.4972,0.7117 0.7012,1.5678 0.5741,2.4121c-0.234,1.5755 -1.6076,2.8101 -3.1251,2.8101v0v0z" fill="#ffffff"/><path d="M261.8524,173.1261c-1.1019,0 -2.2486,0.9232 -2.4407,2.2158c-0.2102,1.4058 0.7815,2.7193 1.9624,2.8953c0.0943,0.014 0.1878,0.021 0.2842,0.021c1.1041,0 2.2417,-0.9225 2.4351,-2.2159c0.2095,-1.4043 -0.7765,-2.7186 -1.9588,-2.8953c-0.0929,-0.0139 -0.1872,-0.0209 -0.2822,-0.0209M261.8524,173.1261v0v-1.3967v0c0.1655,0 0.329,0.0126 0.4882,0.0356c0.9532,0.1418 1.8429,0.7137 2.44,1.5678c0.5998,0.859 0.847,1.8939 0.6927,2.9156c-0.2849,1.9099 -1.963,3.4057 -3.8164,3.4057c-0.1648,0 -0.3303,-0.0118 -0.4902,-0.0363c-0.9512,-0.1417 -1.8415,-0.7123 -2.4393,-1.5656c-0.6027,-0.859 -0.8513,-1.8953 -0.6984,-2.9149c0.2843,-1.9106 1.9638,-3.4079 3.8234,-3.4079z" fill="#000000"/></g><path d="M263.1674,174.4906c0.338,0 0.6439,0.146 0.8659,0.382c0.2214,0.2354 0.359,0.5608 0.359,0.9204c0,0.3597 -0.1376,0.6851 -0.359,0.9205c-0.222,0.236 -0.5279,0.3819 -0.8659,0.3819c-0.338,0 -0.6439,-0.1459 -0.8659,-0.3819c-0.2214,-0.2354 -0.359,-0.5608 -0.359,-0.9205c0,-0.3596 0.1376,-0.685 0.359,-0.9204c0.222,-0.236 0.5279,-0.382 0.8659,-0.382z" fill="#000000"/></g><g stroke="none" stroke-width="0.69834"><g><path d="M261.7128,188.4427c-0.1306,0 -0.2598,-0.0098 -0.3883,-0.0286c-0.764,-0.1145 -1.4826,-0.5796 -1.9707,-1.2766c-0.4993,-0.7123 -0.7053,-1.5684 -0.5782,-2.4127c0.2339,-1.5755 1.6096,-2.8108 3.1313,-2.8108c0.1299,0 0.2577,0.0104 0.3855,0.0286c0.7647,0.1145 1.4833,0.5796 1.9714,1.278c0.4965,0.7116 0.7011,1.567 0.574,2.4113c-0.2339,1.5762 -1.6075,2.8108 -3.125,2.8108v0v0z" fill="#ffffff"/><path d="M261.9069,182.6116c-1.102,0 -2.2486,0.9239 -2.4414,2.2165c-0.2095,1.4044 0.7822,2.718 1.963,2.8953c0.0943,0.0133 0.1879,0.0203 0.2843,0.0203c1.104,0 2.2416,-0.9218 2.4351,-2.2165c0.2095,-1.4044 -0.7766,-2.718 -1.9589,-2.8953c-0.0928,-0.0133 -0.1871,-0.0203 -0.2821,-0.0203M261.9069,182.6116v0v-1.3967v0c0.1655,0 0.3289,0.0126 0.4881,0.037c0.9526,0.1418 1.843,0.713 2.44,1.5671c0.5999,0.8597 0.8471,1.8946 0.6928,2.9163c-0.2849,1.9092 -1.963,3.4058 -3.8164,3.4058c-0.1648,0 -0.3303,-0.0126 -0.4903,-0.0371c-0.9511,-0.1417 -1.8422,-0.7116 -2.4399,-1.5656c-0.602,-0.8597 -0.8506,-1.8946 -0.6977,-2.9149c0.2842,-1.9106 1.963,-3.4086 3.8234,-3.4086z" fill="#000000"/></g><path d="M263.2219,183.9762c0.338,0 0.6438,0.1459 0.8659,0.3819c0.2214,0.2354 0.359,0.5608 0.359,0.9205c0,0.3596 -0.1376,0.685 -0.359,0.9204c-0.2221,0.236 -0.5279,0.382 -0.8659,0.382c-0.338,0 -0.6439,-0.146 -0.866,-0.382c-0.2213,-0.2354 -0.3589,-0.5608 -0.3589,-0.9204c0,-0.3597 0.1376,-0.6851 0.3589,-0.9205c0.2221,-0.236 0.528,-0.3819 0.866,-0.3819z" fill="#000000"/></g></g></g></svg>